<svg width="86" height="48" xmlns="http://www.w3.org/2000/svg" xmlns:xlink="http://www.w3.org/1999/xlink" xmlns:svgjs="http://svgjs.com/svgjs" viewBox="23 33 86 48"><svg width="86" height="48" xmlns="http://www.w3.org/2000/svg" xmlns:xlink="http://www.w3.org/1999/xlink" xmlns:svgjs="http://svgjs.com/svgjs" viewBox="0 0.126 86 47.748" x="23" y="33"><svg xmlns="http://www.w3.org/2000/svg" xmlns:xlink="http://www.w3.org/1999/xlink" width="86" height="48" viewBox="0.999 0.96 84.058 46.67"><path paint-order="stroke fill markers" fill-rule="evenodd" d="M59.807 34.329c-.932.083-1.74-.083-2.548-.332-.683-.228-1.325-.517-1.926-.932a8.103 8.103 0 0 1-2.982-3.624 7.648 7.648 0 0 1-.6-3.024c-.022-2.983.02-5.944-.022-8.927-.041-2.692-1.16-4.888-3.23-6.607a8.369 8.369 0 0 0-3.17-1.616 8.51 8.51 0 0 0-3.893-.103c-1.43.31-2.693.89-3.812 1.822a8.486 8.486 0 0 0-2.61 3.687c-.393 1.035-.558 2.113-.558 3.21 0 4.308.02 8.617 0 12.925 0 .91-.146 1.843-.25 2.754-.123 1.201-.496 2.361-.931 3.48-.725 1.885-1.802 3.562-3.148 5.054a16.794 16.794 0 0 1-3.936 3.21 17.007 17.007 0 0 1-3.251 1.47c-1.823.601-3.687.892-5.593.85-.994-.02-1.988-.083-2.962-.373-.393-.104-.787-.166-1.18-.27-.394-.123-.787-.268-1.18-.413-.456-.166-.933-.311-1.368-.518-.58-.27-1.139-.58-1.698-.911-.932-.58-1.823-1.222-2.61-1.989-.621-.58-.476-.497-.02-.953l4.888-4.888c.33-.331.33-.31.642-.02.849.745 1.78 1.346 2.858 1.74a8.387 8.387 0 0 0 4.1.476c.394-.063.788-.104 1.182-.145.061 0 .144-.042.207-.062.58-.249 1.18-.477 1.76-.746.228-.104.414-.29.622-.435.414-.31.87-.6 1.242-.974.352-.352.642-.766.953-1.16.228-.31.476-.621.663-.972.207-.394.352-.808.476-1.223.124-.414.248-.85.31-1.284a9.11 9.11 0 0 0 .146-1.512c.02-4.412 0-8.823.02-13.235 0-1.015.083-2.03.27-3.024a15.86 15.86 0 0 1 1.429-4.329 16.798 16.798 0 0 1 3.417-4.722 16.058 16.058 0 0 1 3.584-2.651A16.055 16.055 0 0 1 38.1 1.728a16.276 16.276 0 0 1 5.281-.746c.995.021 2.01.062 2.983.29.911.207 1.823.497 2.713.808 1.119.373 2.154.953 3.149 1.595a18.527 18.527 0 0 1 3.23 2.734c.104.104.208.207.332.352.29-.29.56-.58.829-.87a14.87 14.87 0 0 1 3.645-2.796c.642-.332 1.263-.746 1.988-.932.58-.145 1.119-.414 1.678-.622.041-.02.062-.02.103-.02 1.388-.332 2.797-.58 4.226-.56 1.16.021 2.32.042 3.459.311.87.207 1.719.518 2.568.788.994.31 1.885.827 2.775 1.346 1.491.89 2.797 2.03 3.915 3.334.373.414.828.808 1.015 1.388.062.207.31.352.456.56.745 1.18 1.304 2.443 1.76 3.748.393 1.118.6 2.278.766 3.46.083.517.083 1.055.083 1.594v16.57c.02.227-.083.29-.31.31-1.347.042-2.548-.373-3.708-1.015a7.121 7.121 0 0 1-2.071-1.698c-1.284-1.512-1.968-3.231-1.947-5.22v-8.346c0-.953-.124-1.886-.373-2.818-.31-1.139-.87-2.133-1.595-3.065a8.367 8.367 0 0 0-3.272-2.527c-1.678-.725-3.397-.932-5.199-.539-2.195.477-3.894 1.658-5.199 3.439a8.164 8.164 0 0 0-1.201 2.403c-.186.559-.228 1.16-.352 1.74-.145.807-.083 1.615-.083 2.444v14.146c.062.352.062.663.062 1.015zM24.99 22.544c-.083.083-.166.165-.228.248a8.79 8.79 0 0 1-2.527 2.34 8.499 8.499 0 0 1-4.06 1.264 8.77 8.77 0 0 1-3.852-.684c-.87-.372-1.657-.849-2.34-1.47-.787-.725-1.47-1.554-1.968-2.527-.6-1.201-.953-2.464-.973-3.79-.021-2.962-.021-5.903 0-8.865 0-1.45-.352-2.775-1.077-4.018-.953-1.636-2.34-2.796-4.122-3.48-.808-.31-1.636-.455-2.485-.497-.29-.02-.353.042-.353.331v10.481c.02.58.063 1.16.063 1.74 0 .58-.063 1.139-.063 1.719-.02.87.02 1.74 0 2.588-.02 1.327.187 2.63.497 3.915.353 1.45.912 2.817 1.657 4.101.394.663.808 1.305 1.264 1.906.456.6.953 1.16 1.47 1.698.54.539 1.119 1.015 1.699 1.47.352.29.725.54 1.14.767.766.435 1.511.85 2.319 1.222.911.414 1.864.766 2.879.932.87.145 1.74.31 2.63.394.746.062 1.512.062 2.258 0a15.202 15.202 0 0 0 2.382-.29 17.247 17.247 0 0 0 3.19-1.015c.351-.145.538-.373.58-.725.061-.393.103-.787.103-1.18v-8.161c0-.125-.02-.249-.02-.394 0 0-.022 0-.063-.02z"/></svg></svg><svg width="6" height="9" xmlns="http://www.w3.org/2000/svg" xmlns:xlink="http://www.w3.org/1999/xlink" xmlns:svgjs="http://svgjs.com/svgjs" viewBox="0 0.078 6 8.845" x="59" y="70"><svg xmlns="http://www.w3.org/2000/svg" xmlns:xlink="http://www.w3.org/1999/xlink" width="6" height="9" viewBox="0.154 0.705 5.199 7.664"><path paint-order="stroke fill markers" fill-rule="evenodd" d="M4.11 5.22h-.02c-.167.27-.374.476-.622.622-.27.145-.58.228-.911.228-.311 0-.601-.063-.891-.146a2.269 2.269 0 0 1-.767-.476C.672 5.24.506 4.95.361 4.619a3.494 3.494 0 0 1-.207-1.222V.705h1.263v2.692c0 .497.124.87.373 1.12.249.248.56.372.974.372.393 0 .704-.124.952-.373.249-.248.373-.622.373-1.119V.705h1.264V5.8c0 .456-.063.849-.207 1.18a2.25 2.25 0 0 1-.56.788 2.393 2.393 0 0 1-.849.455c-.31.104-.663.146-1.036.146-.31 0-.6-.042-.87-.104a2.428 2.428 0 0 1-.745-.332 2.122 2.122 0 0 1-.58-.56c-.166-.226-.27-.496-.352-.806h1.263c.207.476.622.724 1.264.724.435 0 .766-.103 1.015-.331.227-.228.352-.6.352-1.098V5.22h.062z"/></svg></svg><svg width="7" height="7" xmlns="http://www.w3.org/2000/svg" xmlns:xlink="http://www.w3.org/1999/xlink" xmlns:svgjs="http://svgjs.com/svgjs" viewBox="0 0.039 7 6.923" x="65" y="70"><svg xmlns="http://www.w3.org/2000/svg" xmlns:xlink="http://www.w3.org/1999/xlink" width="7" height="7" viewBox="0.409 0.539 5.654 5.592"><path paint-order="stroke fill markers" fill-rule="evenodd" d="M6.063 3.335c0 .394-.062.766-.207 1.119a2.647 2.647 0 0 1-.58.89c-.248.25-.559.435-.911.58a2.924 2.924 0 0 1-1.14.207c-.414 0-.807-.061-1.138-.207a2.644 2.644 0 0 1-.891-.58 2.371 2.371 0 0 1-.58-.89 2.833 2.833 0 0 1-.207-1.119c0-.393.062-.766.207-1.118.145-.352.331-.642.58-.89a2.89 2.89 0 0 1 .89-.58 2.935 2.935 0 0 1 1.14-.208c.414 0 .787.062 1.139.207.352.146.642.332.911.58.249.249.456.539.58.891.145.352.207.725.207 1.118zM3.226 4.93c.476 0 .849-.145 1.118-.435.29-.29.414-.683.414-1.139 0-.476-.145-.85-.414-1.139-.29-.29-.663-.435-1.118-.435-.477 0-.85.145-1.14.435-.29.29-.434.683-.434 1.139 0 .476.145.85.435 1.139.29.29.662.435 1.139.435z"/></svg></svg><svg width="7" height="7" xmlns="http://www.w3.org/2000/svg" xmlns:xlink="http://www.w3.org/1999/xlink" xmlns:svgjs="http://svgjs.com/svgjs" viewBox="0.107 0 6.786 7" x="71" y="70"><svg xmlns="http://www.w3.org/2000/svg" xmlns:xlink="http://www.w3.org/1999/xlink" width="7" height="7" viewBox="0.85 0.705 5.261 5.426"><path paint-order="stroke fill markers" fill-rule="evenodd" d="M4.848.705H6.11V3.46c0 .434-.062.828-.186 1.16-.125.33-.31.6-.538.828a2.259 2.259 0 0 1-.83.518c-.31.124-.683.165-1.076.165-.394 0-.746-.061-1.077-.165-.31-.104-.6-.27-.829-.497a2.218 2.218 0 0 1-.538-.85A3.32 3.32 0 0 1 .85 3.46V.706h1.264V3.46c0 .497.124.87.373 1.118.248.248.559.373.973.373.414 0 .725-.125.974-.373.248-.249.373-.621.373-1.118V.705h.04z"/></svg></svg><svg width="9" height="6" xmlns="http://www.w3.org/2000/svg" xmlns:xlink="http://www.w3.org/1999/xlink" xmlns:svgjs="http://svgjs.com/svgjs" viewBox="0.057 0 8.886 6" x="78" y="70"><svg xmlns="http://www.w3.org/2000/svg" xmlns:xlink="http://www.w3.org/1999/xlink" width="9" height="6" viewBox="0.188 0.56 8.036 5.426"><path paint-order="stroke fill markers" fill-rule="evenodd" d="M3.585 5.987V2.963c0-.436-.104-.746-.31-.933a1.099 1.099 0 0 0-.767-.29c-.31 0-.58.104-.766.29-.207.187-.29.497-.29.933v3.024H.188V2.963c0-.415.062-.767.166-1.077.124-.311.27-.56.455-.746a1.76 1.76 0 0 1 .705-.435c.27-.104.56-.145.87-.145.393 0 .745.082 1.056.249.31.165.56.393.746.683h.02a1.82 1.82 0 0 1 .746-.683A2.23 2.23 0 0 1 6.03.56c.31 0 .6.041.87.145.27.104.497.248.704.435.186.186.352.435.456.746.103.31.166.662.166 1.077v3.024H6.96V2.963c0-.436-.103-.746-.29-.933a1.099 1.099 0 0 0-.766-.29c-.31 0-.56.104-.766.29-.208.187-.29.497-.29.933v3.024H3.585z"/></svg></svg><svg width="6" height="7" xmlns="http://www.w3.org/2000/svg" xmlns:xlink="http://www.w3.org/1999/xlink" xmlns:svgjs="http://svgjs.com/svgjs" viewBox="0 0.522 6 5.956" x="87" y="70"><svg xmlns="http://www.w3.org/2000/svg" xmlns:xlink="http://www.w3.org/1999/xlink" width="6" height="7" viewBox="0.136 0.539 5.634 5.592"><path paint-order="stroke fill markers" fill-rule="evenodd" d="M1.42 3.79v.022c.083.352.249.642.518.849.27.207.58.31.994.31.58 0 .994-.165 1.243-.497h1.367c-.207.497-.518.912-.974 1.202-.455.29-.994.455-1.615.455-.415 0-.808-.062-1.14-.207a2.644 2.644 0 0 1-.89-.58 2.375 2.375 0 0 1-.58-.89 3.261 3.261 0 0 1-.207-1.119c0-.393.062-.766.207-1.118a2.66 2.66 0 0 1 .58-.89c.248-.25.56-.436.89-.58a2.935 2.935 0 0 1 1.14-.208c.414 0 .787.062 1.139.207s.642.332.89.58c.25.249.435.539.58.891.145.352.207.704.207 1.118v.456H1.42zm1.512-2.07c-.373 0-.684.083-.953.27a1.48 1.48 0 0 0-.538.765v.02h2.94v-.02c-.103-.31-.268-.58-.538-.766-.227-.186-.559-.27-.911-.27z"/></svg></svg><svg width="9" height="6" xmlns="http://www.w3.org/2000/svg" xmlns:xlink="http://www.w3.org/1999/xlink" xmlns:svgjs="http://svgjs.com/svgjs" viewBox="0.057 0 8.886 6" x="93" y="70"><svg xmlns="http://www.w3.org/2000/svg" xmlns:xlink="http://www.w3.org/1999/xlink" width="9" height="6" viewBox="0.598 0.56 8.036 5.426"><path paint-order="stroke fill markers" fill-rule="evenodd" d="M3.995 5.987V2.963c0-.436-.104-.746-.311-.933a1.098 1.098 0 0 0-.766-.29c-.31 0-.58.104-.767.29-.207.187-.29.497-.29.933v3.024H.598V2.963c0-.415.062-.767.166-1.077.124-.311.269-.56.455-.746a1.76 1.76 0 0 1 .705-.435C2.193.6 2.483.56 2.794.56c.393 0 .745.082 1.056.249.31.165.56.393.746.683h.02c.187-.29.435-.539.746-.683.31-.167.663-.249 1.077-.249.31 0 .6.041.87.145.27.104.497.248.704.435.186.186.352.435.456.746.103.31.165.662.165 1.077v3.024H7.371V2.963c0-.436-.104-.746-.29-.933a1.099 1.099 0 0 0-.766-.29c-.311 0-.56.104-.767.29-.207.187-.29.497-.29.933v3.024H3.995z"/></svg></svg><svg width="7" height="7" xmlns="http://www.w3.org/2000/svg" xmlns:xlink="http://www.w3.org/1999/xlink" xmlns:svgjs="http://svgjs.com/svgjs" viewBox="0 0.026 7 6.948" x="102" y="70"><svg xmlns="http://www.w3.org/2000/svg" width="7" height="7" viewBox="0.546 0.539 5.634 5.592"><path paint-order="stroke fill markers" fill-rule="evenodd" d="M1.83 3.79v.022c.083.352.248.642.518.849.269.207.58.31.994.31.58 0 .994-.165 1.243-.497h1.367c-.207.497-.518.912-.974 1.202-.456.29-.994.455-1.615.455-.415 0-.808-.062-1.14-.207a2.644 2.644 0 0 1-.89-.58 2.375 2.375 0 0 1-.58-.89 3.261 3.261 0 0 1-.207-1.119c0-.393.062-.766.207-1.118a2.66 2.66 0 0 1 .58-.89c.248-.25.56-.436.89-.58a2.935 2.935 0 0 1 1.14-.208c.414 0 .786.062 1.139.207.352.145.642.332.89.58.25.249.435.539.58.891.145.352.207.704.207 1.118v.456H1.83zm1.512-2.07c-.373 0-.684.083-.953.27a1.481 1.481 0 0 0-.539.765v.02h2.942v-.02c-.104-.31-.27-.58-.539-.766-.227-.186-.538-.27-.911-.27z"/></svg></svg></svg>